HIERARCHY
ROOT Hips
{
	OFFSET -3.958830 18.904000 13.208200
	CHANNELS 6 Xposition Yposition Zposition Zrotation Yrotation Xrotation 
	JOINT LHipJoint
	{
		OFFSET 0.000000 0.000000 0.000000
		CHANNELS 3 Zrotation Yrotation Xrotation
		JOINT LeftUpLeg
		{
			OFFSET 1.800000 -1.400000 0.085000
			CHANNELS 3 Zrotation Yrotation Xrotation
			JOINT LeftLeg
			{
				OFFSET 2.215000 -6.000000 0.000000
				CHANNELS 3 Zrotation Yrotation Xrotation
				JOINT LeftFoot
				{
					OFFSET 2.500000 -6.900000 0.000000
					CHANNELS 3 Zrotation Yrotation Xrotation
					JOINT LeftToeBase
					{
						OFFSET 0.200000 -0.500000 1.950000
						CHANNELS 3 Zrotation Yrotation Xrotation
						End Site
						{
							OFFSET 0.000000 0.000000 0.000000
						}
					}
				}
			}
		}
	}
	JOINT RHipJoint
	{
		OFFSET 0.000000 0.000000 0.000000
		CHANNELS 3 Zrotation Yrotation Xrotation
		JOINT RightUpLeg
		{
			OFFSET -1.800000 -1.400000 0.085000
			CHANNELS 3 Zrotation Yrotation Xrotation
			JOINT RightLeg
			{
				OFFSET -2.215000 -6.000000 0.000000
				CHANNELS 3 Zrotation Yrotation Xrotation
				JOINT RightFoot
				{
					OFFSET -2.500000 -6.900000 0.000000
					CHANNELS 3 Zrotation Yrotation Xrotation
					JOINT RightToeBase
					{
						OFFSET -0.200000 -0.500000 1.950000
						CHANNELS 3 Zrotation Yrotation Xrotation
						End Site
						{
							OFFSET 0.000000 0.000000 0.000000
						}
					}
				}
			}
		}
	}
	JOINT LowerBack
	{
		OFFSET 0.000000 0.000000 0.000000
		CHANNELS 3 Zrotation Yrotation Xrotation
		JOINT Spine
		{
			OFFSET -0.087000 1.940000 -0.288900
			CHANNELS 3 Zrotation Yrotation Xrotation
			JOINT Spine1
			{
				OFFSET 0.000000 1.950000 0.060000
				CHANNELS 3 Zrotation Yrotation Xrotation
				JOINT Neck
				{
					OFFSET 0.000000 0.000000 0.000000
					CHANNELS 3 Zrotation Yrotation Xrotation
					JOINT Neck1
					{
						OFFSET 0.000000 1.600000 0.340000
						CHANNELS 3 Zrotation Yrotation Xrotation
						JOINT Head
						{
							OFFSET 0.000000 1.667000 -0.240000
							CHANNELS 3 Zrotation Yrotation Xrotation
							End Site
							{
								OFFSET 0.000000 0.000000 0.000000
							}
						}
					}
				}
				JOINT LeftShoulder
				{
					OFFSET 0.000000 0.000000 0.000000
					CHANNELS 3 Zrotation Yrotation Xrotation
					JOINT LeftArm
					{
						OFFSET 2.700000 1.550000 -0.730000
						CHANNELS 3 Zrotation Yrotation Xrotation
						JOINT LeftForeArm
						{
							OFFSET 5.450000 0.000000 0.000000
							CHANNELS 3 Zrotation Yrotation Xrotation
							JOINT LeftHand
							{
								OFFSET 3.450000 0.000000 0.000000
								CHANNELS 3 Zrotation Yrotation Xrotation
								JOINT LeftHandIndex1
								{
									OFFSET 0.750000 0.000000 0.000000
									CHANNELS 3 Zrotation Yrotation Xrotation
									End Site
									{
										OFFSET 0.000000 0.000000 0.000000
									}
								}
							}
						}
					}
				}
				JOINT RightShoulder
				{
					OFFSET 0.000000 0.000000 0.000000
					CHANNELS 3 Zrotation Yrotation Xrotation
					JOINT RightArm
					{
						OFFSET -2.700000 1.550000 -0.730000
						CHANNELS 3 Zrotation Yrotation Xrotation
						JOINT RightForeArm
						{
							OFFSET -5.450000 0.000000 0.000000
							CHANNELS 3 Zrotation Yrotation Xrotation
							JOINT RightHand
							{
								OFFSET -3.450000 0.000000 0.000000
								CHANNELS 3 Zrotation Yrotation Xrotation
								JOINT RightHandIndex1
								{
									OFFSET -0.750000 0.000000 0.000000
									CHANNELS 3 Zrotation Yrotation Xrotation
									End Site
									{
										OFFSET 0.000000 0.000000 0.000000
									}
								}
							}
						}
					}
				}
			}
		}
	}
}
MOTION
Frames: 12
Frame Time: 0.016667
-1.056280 16.459750 -2.244420 -0.068394 -10.114087 -14.137894 -14.949954 12.380941 3.906302 29.440722 -2.770842 -13.788504 -15.329458 19.264652 43.964340 1.015138 10.077003 0.552479 0.546480 0.620720 0.769030 18.477127 -10.930654 2.518355 -24.247377 1.475632 -26.847090 1.637598 -14.037726 55.976105 -1.420597 -8.394430 0.969652 0.096250 -0.712000 -0.017270 -4.098517 -0.193859 -8.374458 36.976365 -10.612821 31.914124 -8.515720 -1.537387 -0.332880 5.072974 7.045751 -15.073778 31.093885 -30.306609 53.416386 12.936280 -11.043140 -25.015360 -14.817687 -5.820868 4.191602 -35.920230 6.186925 -13.290568 25.945252 -47.135080 -10.046557 -2.789705 2.892807 0.760900 -0.666110 0.768340 -0.164800 3.551961 6.758340 9.296687 59.885062 7.180251 -11.197957 -8.089533 33.813441 -4.630166 2.635336 -1.005794 0.153810 -0.018880 -0.343240 -0.150150 
-1.061140 16.490420 -2.240260 0.103902 -9.947636 -13.726551 -14.896107 12.393386 3.825169 28.668117 -2.723035 -13.760417 -14.898570 18.780881 43.400516 1.004282 9.874172 0.631394 0.531300 0.607510 0.743840 18.509270 -11.066339 2.526755 -24.005546 1.331772 -26.990349 1.260971 -13.614197 55.164327 -1.356244 -8.239393 1.027235 0.086240 -0.699350 -0.021280 -4.209304 0.029479 -8.330483 37.280693 -10.051849 30.016952 -8.504697 -1.380081 -0.235078 4.741361 7.365772 -15.225216 30.947297 -29.829586 52.589500 12.057290 -11.587190 -22.850380 -14.152731 -6.429437 4.555461 -36.079675 5.969344 -13.021536 25.797430 -45.774344 -9.616736 -2.803088 2.915505 0.713950 -0.646530 0.740210 -0.154200 3.386642 6.919364 9.379192 60.310035 6.961090 -10.688800 -7.501887 32.572024 -4.320281 2.659398 -1.037124 0.165700 -0.036230 -0.346670 -0.132090 
-1.068150 16.534920 -2.223070 0.031043 -9.696044 -12.917500 -14.831452 12.362621 3.767605 28.259005 -2.596242 -13.800055 -14.761292 18.279522 42.183712 0.987148 9.624174 0.730880 0.509230 0.574710 0.729970 18.556153 -11.213153 2.528846 -23.485395 1.179652 -27.120527 1.068245 -13.231844 53.927132 -1.276736 -8.026436 1.105155 0.063220 -0.680480 -0.019840 -4.360258 0.344798 -8.287804 37.832137 -9.521940 27.476998 -8.768534 -1.293910 -0.439500 4.354166 7.819329 -15.196539 31.124628 -29.048474 50.976039 11.337770 -11.770050 -20.455590 -13.262712 -6.548918 4.884114 -36.979937 5.774102 -12.709704 26.207546 -44.145222 -9.252870 -2.832666 2.936782 0.664820 -0.620150 0.707260 -0.147790 3.014229 6.407960 9.276573 61.214128 6.818543 -9.946099 -6.175437 31.156448 -3.790741 2.696072 -1.068433 0.175150 -0.059640 -0.351530 -0.119020 
-1.076760 16.585680 -2.196550 -0.032563 -9.193249 -12.127446 -14.783465 12.354679 3.724177 28.014387 -2.441063 -13.540545 -14.984414 17.714104 40.246533 0.918112 9.317626 0.826612 0.489680 0.551300 0.711010 18.582692 -11.358227 2.500414 -23.069915 0.890579 -26.865078 1.008757 -12.947863 52.505741 -1.200899 -7.824618 1.168178 0.053900 -0.673200 -0.003370 -4.459253 0.609166 -8.237885 38.057171 -8.874819 25.094157 -8.988009 -1.182969 -1.078592 4.311805 8.357086 -14.972431 31.876825 -28.915056 47.946617 9.571180 -11.684510 -19.178940 -12.532924 -5.862124 4.710295 -37.211060 5.199791 -11.978895 24.645223 -42.862628 -8.180960 -2.883180 2.983385 0.627890 -0.588380 0.677180 -0.155190 2.101306 5.256227 9.183063 62.833575 6.647800 -9.117863 -4.683768 29.605030 -3.250274 2.710813 -1.104180 0.182280 -0.092920 -0.337730 -0.119180 
-1.086790 16.639050 -2.163310 -0.270112 -8.521778 -11.053981 -14.741727 12.336064 3.689184 27.944387 -2.235037 -13.318856 -15.299748 17.055397 37.840035 0.809763 8.981267 0.919982 0.471630 0.516480 0.702960 18.607456 -11.489769 2.466932 -22.487928 0.627577 -26.636178 1.012621 -12.693316 50.890763 -1.129251 -7.603322 1.224172 0.041220 -0.671880 0.043560 -4.550351 0.870676 -8.183863 38.343281 -8.094957 22.311291 -9.133410 -1.025473 -1.760061 4.372848 9.075992 -14.743683 32.697383 -29.162217 43.772108 6.892900 -11.536500 -18.750040 -11.867410 -5.094486 4.573126 -37.743799 5.152457 -11.498453 22.970708 -42.541509 -7.369650 -2.944477 3.037065 0.607410 -0.550740 0.655920 -0.175310 0.990298 3.876689 9.086711 65.105804 6.161926 -8.686863 -3.877942 28.374788 -2.940282 2.701475 -1.141558 0.191900 -0.138120 -0.307000 -0.132840 
-1.090290 16.698640 -2.115520 -0.545075 -7.823349 -9.463372 -14.702328 12.274846 3.674554 27.869855 -2.001016 -13.356986 -15.830507 16.472417 35.231107 0.707978 8.656666 1.028370 0.428610 0.460080 0.688170 18.637298 -11.594860 2.458191 -21.942247 0.406800 -26.716951 1.269979 -12.503818 48.855405 -1.035136 -7.337275 1.303241 0.022200 -0.651060 0.080680 -4.648676 1.181157 -8.141079 38.785162 -7.089865 19.066117 -9.626972 -0.652224 -2.871522 4.528363 10.114427 -14.374467 33.716183 -28.867747 37.827182 3.671050 -10.753860 -18.088580 -11.092719 -3.787333 4.339725 -38.621557 5.491681 -11.066883 20.993789 -42.966605 -6.479604 -3.019865 3.079820 0.577400 -0.494400 0.622260 -0.194350 -0.645239 1.812767 9.055891 68.042357 5.101819 -8.576066 -2.723989 27.658044 -2.626875 2.684935 -1.180183 0.180720 -0.170810 -0.275270 -0.148550 
-1.091540 16.770530 -2.065640 -0.741526 -7.034755 -7.437688 -14.661021 12.189469 3.622406 27.375519 -1.812195 -13.872294 -15.977552 15.731779 32.774326 0.611336 8.287355 1.173235 0.364860 0.375430 0.673720 18.674861 -11.683601 2.499460 -21.541171 0.262992 -27.121041 2.020069 -12.467840 46.460745 -0.913166 -7.061611 1.390609 -0.006150 -0.604510 0.109170 -4.761991 1.542692 -8.085002 39.127407 -5.684543 15.397457 -10.132699 -0.058201 -3.922394 4.746797 11.420841 -13.851264 34.110951 -27.996091 30.483990 0.306740 -9.805870 -16.635570 -10.626350 -2.449418 4.060401 -39.527544 5.914375 -10.620514 18.740431 -43.516410 -5.471334 -3.120735 3.124255 0.512390 -0.415510 0.558860 -0.216460 -2.212893 -0.552823 9.105268 70.851403 3.155842 -9.215160 -1.300647 28.220626 -2.390950 2.658381 -1.235946 0.160470 -0.198390 -0.241550 -0.161370 
-1.099940 16.834200 -2.019940 -0.614947 -6.004960 -5.251743 -14.613747 12.039526 3.509844 26.393089 -1.706647 -14.831764 -15.709114 14.843069 30.698362 0.520586 7.871273 1.332554 0.344990 0.363170 0.619330 18.734310 -11.816397 2.542257 -21.330624 0.101376 -27.724727 2.482685 -12.286110 44.165669 -0.790674 -6.870214 1.440770 0.013320 -0.518570 0.186380 -4.920169 2.087201 -7.958365 38.586987 -3.989914 11.232864 -10.110954 0.165489 -4.156694 5.271107 12.707015 -12.650166 32.981216 -26.301007 21.572094 -2.668810 -8.561690 -14.579660 -11.270637 -1.025434 3.600091 -39.345487 6.611468 -10.105264 16.980986 -44.945353 -4.728728 -3.246027 3.287551 0.376940 -0.289840 0.472400 -0.192010 -3.008084 -3.498131 8.548040 72.938752 1.465524 -9.789976 -0.051065 29.137089 -2.273315 2.610198 -1.387670 0.182320 -0.267490 -0.224280 -0.129470 
-1.115360 16.888460 -1.993170 -0.070940 -5.104056 -3.272386 -14.581508 11.844461 3.354577 25.082103 -1.729167 -15.851777 -15.384339 14.003771 29.046153 0.420507 7.523795 1.484363 0.379820 0.390160 0.593050 18.801741 -11.922158 2.585726 -21.478859 -0.005586 -28.457600 2.883290 -12.087973 42.311452 -0.686926 -6.784106 1.434182 0.078210 -0.401370 0.278950 -5.076577 2.646151 -7.760956 37.028486 -2.413607 7.074661 -9.309153 -0.007785 -3.162410 5.780956 12.751914 -11.276376 29.738844 -24.750581 14.405899 -4.877610 -7.665450 -12.333090 -12.126933 -0.216719 3.136199 -39.757216 6.907872 -9.866454 16.887897 -44.713345 -4.641116 -3.394184 3.450586 0.222250 -0.152060 0.366750 -0.143630 -3.133215 -5.323749 7.668720 74.517890 0.467206 -10.164595 -0.256926 28.716337 -2.492088 2.563619 -1.572769 0.206000 -0.321870 -0.220730 -0.087380 
-1.130130 16.944950 -1.973530 0.681002 -4.421254 -1.632843 -14.595606 11.741831 3.207375 23.617859 -1.779431 -16.744276 -14.982801 13.175874 27.567671 0.273945 7.181649 1.610649 0.433150 0.493240 0.547770 18.823764 -11.954453 2.591766 -21.847172 -0.107195 -28.865341 3.224662 -11.770754 40.442347 -0.574664 -6.707055 1.427145 0.212380 -0.276520 0.337120 -5.104491 2.901672 -7.521941 35.002816 -1.399022 3.676033 -8.182937 -0.443541 -2.225074 6.504718 11.386283 -9.965626 25.792075 -23.196499 9.190888 -7.230760 -6.227050 -10.656110 -13.923526 0.679438 2.432305 -39.607921 7.600560 -9.609221 17.989018 -43.783947 -4.931623 -3.571468 3.572574 0.045760 0.002700 0.249670 -0.098730 -2.491408 -6.028048 6.718575 74.837636 -0.200890 -10.097889 -0.533658 26.966084 -2.725378 2.503257 -1.742031 0.214350 -0.333930 -0.206550 -0.042100 
-1.139540 16.997120 -1.965730 1.201802 -3.741762 -0.836455 -14.618697 11.766115 3.086515 22.468083 -1.813028 -17.037335 -14.367234 12.323083 26.168782 0.143571 6.821042 1.748995 0.549220 0.644970 0.592320 18.808817 -11.996869 2.535875 -22.098924 -0.224692 -28.171998 3.679023 -11.322795 38.259662 -0.510523 -6.522546 1.457632 0.358660 -0.214580 0.368500 -5.062799 2.922139 -7.305773 33.569230 -1.004581 1.488239 -7.347352 -0.893317 -1.383061 6.866755 9.594433 -9.283800 22.350003 -21.120879 6.440086 -8.190480 -4.597470 -10.513300 -15.273994 0.972371 2.040648 -40.318105 7.902499 -9.502565 20.761857 -41.538488 -5.617402 -3.670327 3.629327 -0.055240 0.087460 0.199030 -0.043810 -1.523298 -5.566138 6.100299 74.531239 -0.449068 -10.096839 -0.933254 25.791017 -3.018805 2.465096 -1.884094 0.219860 -0.327350 -0.255630 -0.020440 
-1.151050 17.039660 -1.950560 1.432027 -3.414057 -0.403587 -14.632716 11.812550 2.984439 21.759194 -1.735330 -16.713559 -13.936578 11.677805 24.782623 0.036893 6.570203 1.841602 0.603640 0.719560 0.580560 18.792116 -12.023312 2.501133 -22.203876 -0.166609 -27.347159 4.322545 -10.974910 36.316914 -0.453092 -6.355893 1.485352 0.448700 -0.138570 0.400120 -5.025873 2.902453 -7.144424 32.627282 -0.763217 0.086593 -6.759015 -1.098559 -0.877797 6.732600 7.857316 -8.946980 19.358853 -18.753259 4.931690 -7.544480 -3.710760 -10.662710 -15.540965 1.319756 1.766915 -41.862043 7.896229 -9.410671 22.235882 -38.694957 -5.774031 -3.779727 3.661613 -0.121340 0.152240 0.145020 -0.019440 -0.731588 -4.976739 5.690078 74.127953 -0.619285 -10.098312 -1.394343 24.633052 -3.209898 2.430322 -1.956311 0.218590 -0.309080 -0.240080 0.000900 
